<svg width="35" height="36" viewBox="0 0 35 36" fill="none" xmlns="http://www.w3.org/2000/svg">
<path d="M5.5 24C5.5 22.6193 4.38071 21.5 3 21.5C1.61929 21.5 0.5 22.6193 0.5 24H5.5ZM34.5 24C34.5 22.6193 33.3807 21.5 32 21.5C30.6193 21.5 29.5 22.6193 29.5 24H34.5ZM27.7134 15.8205C28.7188 14.8742 28.7668 13.292 27.8205 12.2866C26.8742 11.2812 25.292 11.2332 24.2866 12.1795L27.7134 15.8205ZM17.5 22L15.7866 23.8205C16.7492 24.7265 18.2508 24.7265 19.2134 23.8205L17.5 22ZM10.7134 12.1795C9.70798 11.2332 8.12579 11.2812 7.1795 12.2866C6.23321 13.292 6.28115 14.8742 7.28659 15.8205L10.7134 12.1795ZM14.5 20C14.5 21.3807 15.6193 22.5 17 22.5C18.3807 22.5 19.5 21.3807 19.5 20H14.5ZM19.5 3C19.5 1.61929 18.3807 0.5 17 0.5C15.6193 0.5 14.5 1.61929 14.5 3H19.5ZM0.5 24V30H5.5V24H0.5ZM0.5 30C0.5 33.196 3.24054 35.5 6.22222 35.5V30.5C5.97473 30.5 5.77616 30.4064 5.65007 30.289C5.5264 30.1739 5.5 30.0685 5.5 30H0.5ZM6.22222 35.5H28.7778V30.5H6.22222V35.5ZM28.7778 35.5C31.7668 35.5 34.5 33.2028 34.5 30H29.5C29.5 30.0778 29.4708 30.1816 29.3527 30.2916C29.2315 30.4044 29.0343 30.5 28.7778 30.5V35.5ZM34.5 30V24H29.5V30H34.5ZM24.2866 12.1795L15.7866 20.1795L19.2134 23.8205L27.7134 15.8205L24.2866 12.1795ZM19.2134 20.1795L10.7134 12.1795L7.28659 15.8205L15.7866 23.8205L19.2134 20.1795ZM19.5 20V3H14.5V20H19.5Z" fill="white"/>
</svg>
